<svg width="50" height="50" viewBox="0 0 50 50" fill="none" xmlns="http://www.w3.org/2000/svg">
<circle cx="25" cy="25" r="24.5" stroke="#457EE0"/>
<path d="M23.7867 13.5773L24.2622 13.7318L23.7867 13.5773L21.3303 21.1373H13.3812C12.6547 21.1373 12.3526 22.067 12.9404 22.494L19.3713 27.1664L16.9149 34.7264C16.6904 35.4174 17.4813 35.992 18.069 35.565L24.5 30.8926L30.9309 35.565C31.5187 35.992 32.3096 35.4174 32.0851 34.7264L29.6287 27.1664L36.0596 22.4941C36.6474 22.067 36.3453 21.1373 35.6188 21.1373H27.6697L25.2133 13.5773L24.7378 13.7318L25.2133 13.5773C24.9888 12.8863 24.0112 12.8863 23.7867 13.5773ZM29.4817 27.2732L29.4822 27.2728L29.4817 27.2732Z" stroke="#457EE0"/>
</svg>
