<svg width="50" height="50" viewBox="0 0 50 50" fill="none" xmlns="http://www.w3.org/2000/svg">
<path d="M12.0764 24.1111H14.7778C15.5145 24.1111 16.221 24.4038 16.742 24.9247C17.2629 25.4456 17.5556 26.1522 17.5556 26.8889V28.2778C17.5556 29.0145 17.8482 29.721 18.3691 30.242C18.8901 30.7629 19.5966 31.0556 20.3333 31.0556C21.07 31.0556 21.7766 31.3482 22.2975 31.8691C22.8185 32.3901 23.1111 33.0966 23.1111 33.8333V37.9236M18.9444 14.2986V16.4722C18.9444 17.3931 19.3103 18.2763 19.9614 18.9275C20.6126 19.5786 21.4958 19.9444 22.4167 19.9444H23.1111C23.8478 19.9444 24.5544 20.2371 25.0753 20.758C25.5962 21.279 25.8889 21.9855 25.8889 22.7222C25.8889 23.4589 26.1815 24.1655 26.7025 24.6864C27.2234 25.2073 27.93 25.5 28.6667 25.5C29.4034 25.5 30.1099 25.2073 30.6309 24.6864C31.1518 24.1655 31.4444 23.4589 31.4444 22.7222C31.4444 21.9855 31.7371 21.279 32.258 20.758C32.779 20.2371 33.4855 19.9444 34.2222 19.9444H35.7M28.6667 37.2889V33.8333C28.6667 33.0966 28.9593 32.3901 29.4803 31.8691C30.0012 31.3482 30.7077 31.0556 31.4444 31.0556H35.7M37 25.5C37 27.1415 36.6767 28.767 36.0485 30.2835C35.4203 31.8001 34.4996 33.1781 33.3388 34.3388C32.1781 35.4996 30.8001 36.4203 29.2835 37.0485C27.767 37.6767 26.1415 38 24.5 38C22.8585 38 21.233 37.6767 19.7165 37.0485C18.1999 36.4203 16.8219 35.4996 15.6612 34.3388C14.5004 33.1781 13.5797 31.8001 12.9515 30.2835C12.3233 28.767 12 27.1415 12 25.5C12 22.1848 13.317 19.0054 15.6612 16.6612C18.0054 14.317 21.1848 13 24.5 13C27.8152 13 30.9946 14.317 33.3388 16.6612C35.683 19.0054 37 22.1848 37 25.5Z" stroke="#457EE0" stroke-linecap="round" stroke-linejoin="round"/>
<circle cx="25" cy="25" r="24.5" stroke="#457EE0"/>
</svg>
