<svg width="34" height="44" viewBox="0 0 34 44" fill="none" xmlns="http://www.w3.org/2000/svg">
<path d="M29.5007 14.6667H27.4173V10.5C27.4173 4.75 22.7507 0.0833359 17.0007 0.0833359C11.2507 0.0833359 6.58398 4.75 6.58398 10.5V14.6667H4.50065C2.20898 14.6667 0.333984 16.5417 0.333984 18.8333V39.6667C0.333984 41.9583 2.20898 43.8333 4.50065 43.8333H29.5007C31.7923 43.8333 33.6673 41.9583 33.6673 39.6667V18.8333C33.6673 16.5417 31.7923 14.6667 29.5007 14.6667ZM17.0007 33.4167C14.709 33.4167 12.834 31.5417 12.834 29.25C12.834 26.9583 14.709 25.0833 17.0007 25.0833C19.2923 25.0833 21.1673 26.9583 21.1673 29.25C21.1673 31.5417 19.2923 33.4167 17.0007 33.4167ZM23.459 14.6667H10.5423V10.5C10.5423 6.9375 13.4382 4.04167 17.0007 4.04167C20.5632 4.04167 23.459 6.9375 23.459 10.5V14.6667Z" fill="#333333"/>
</svg>
