<svg width="13" height="12" viewBox="0 0 13 12" fill="none" xmlns="http://www.w3.org/2000/svg">
<path d="M5.78771 1.19525C6.01271 0.504498 6.98996 0.504498 7.21421 1.19525L8.01671 3.66425C8.06574 3.81461 8.16104 3.94563 8.28901 4.03858C8.41698 4.13152 8.57105 4.18163 8.72921 4.18175H11.3257C12.0525 4.18175 12.354 5.11175 11.7667 5.53925L9.66671 7.06475C9.53848 7.15777 9.443 7.289 9.39396 7.43964C9.34491 7.59027 9.34483 7.75256 9.39371 7.90325L10.1962 10.3722C10.4212 11.063 9.62996 11.6382 9.04121 11.2107L6.94121 9.68525C6.81311 9.59225 6.65888 9.54217 6.50058 9.54217C6.34229 9.54217 6.18805 9.59225 6.05996 9.68525L3.95996 11.2107C3.37196 11.6382 2.58146 11.063 2.80571 10.3722L3.60821 7.90325C3.65709 7.75256 3.657 7.59027 3.60796 7.43964C3.55891 7.289 3.46343 7.15777 3.33521 7.06475L1.23596 5.54C0.648707 5.1125 0.950957 4.1825 1.67696 4.1825H4.27271C4.43099 4.18254 4.58523 4.1325 4.71335 4.03955C4.84147 3.94659 4.93689 3.81549 4.98596 3.665L5.78846 1.196L5.78771 1.19525Z" fill="#333333"/>
</svg>
